# xmcd CD database file
#
# Track frame offsets:
#	150
#	17720
#	32620
#	55835
#	68082
#	87572
#	108800
#	124142
#	136020
#	155742
#	173270
#	203855
#	221467
#
# Disc length: 3275 seconds
#
# Revision: 0
# Processed by: cddbd v1.4PL0 Copyright (c) Steve Scherf et al.
# Submitted via: Feurio! 1.66 - http://www.feurio.com
#
DISCID=a70cc90d
DTITLE=Spaghetti Junction - Big H -1995
DYEAR=1995
DGENRE=CD -Kiste -Keller
TTITLE0=Birmingham Cowboy
TTITLE1=Time Machine
TTITLE2=Tuesday Morning
TTITLE3=Seventy Five
TTITLE4=A Day
TTITLE5=Dead Drunk
TTITLE6=Walsall Junction
TTITLE7=Legend Of The Boing Boing Man
TTITLE8=Heaven Bound
TTITLE9=We All Meet George
TTITLE10=Gypsy Rose
TTITLE11=Nuclear Rose
TTITLE12=Santiano's Revenge
EXTD=Label: Outlaw (Megaphon)
EXTT0=
EXTT1=
EXTT2=
EXTT3=
EXTT4=
EXTT5=
EXTT6=
EXTT7=
EXTT8=
EXTT9=
EXTT10=
EXTT11=
EXTT12=
PLAYORDER=
